<?xml version="1.0" encoding="utf-8"?>
<!-- Generator: Adobe Illustrator 16.0.4, SVG Export Plug-In . SVG Version: 6.00 Build 0)  -->
<!DOCTYPE svg PUBLIC "-//W3C//DTD SVG 1.1//EN" "http://www.w3.org/Graphics/SVG/1.1/DTD/svg11.dtd">
<svg version="1.1" id="Layer_1" xmlns="http://www.w3.org/2000/svg" xmlns:xlink="http://www.w3.org/1999/xlink" x="0px" y="0px"
	 width="50px" height="1000px" viewBox="0 0 50 1000" enable-background="new 0 0 50 1000" xml:space="preserve">
<g id="g146" transform="matrix(1.25,0,0,-1.25,19.73105,730.66062)">
	<path id="path148" inkscape:connector-curvature="0" fill="#0D4C88" d="M-9.42,545.546c5.677-2.482,15.299-0.206,22.521,4.48
		C4.509,547.24-3.488,546.05-9.42,545.546 M14.712,567.453c1.548-0.587,2.873,0.719,2.97,2.197c0.083,1.336-0.86,2.315-2.016,2.377
		c-0.926,0.049-2.164-0.784-2.262-2.347C13.315,568.251,14.301,567.609,14.712,567.453 M-13.981,552.807
		c-1.307,10.091,4.815,27.203,11.331,30.75c8.303,4.524,22.741-7.691,24.952-17.661c-0.83,0.662-1.589,0.326-2.339-0.554
		c-0.686-0.804-1.948-2.248-3.098-2.046c-1.574,0.28-2.688,2.867-4.641,5.906c-1.816,2.825-5.119,7.611-8.71,5.228
		c-1.318-0.874-2.741-2.25-3.405-3.723c-0.308-0.687-0.357-1.416,0.402-1.472c0.667-0.052,1.575,1.242,2.191,1.935
		c2.408,2.708,4.227,0.929,5.937-1.872c-4.231-0.301-10.568-1.543-11.628-3.843c-0.639-1.392,0.789-4.845-0.084-8.774
		c-0.321-1.453-1.217-2.066-2.224-2.795c-0.756-0.546-1.861-1.171-2.983-1.755C-10.505,552.325-12.447,552.576-13.981,552.807
		 M-3.816,551.849c6.895-0.265,15.291,0.226,22.604,2.987c1.904,2.163,3.231,4.552,3.671,7.055c0.12,0.669,0.153,1.366,0.113,2.08
		c-0.814-1.521-3.317-3.137-4.511-3.48c-2.513-0.727-4.543,0.859-6.855,4.412c-1.109-0.019-5.255-0.616-6.925-1.241
		c1.909-1.451,4.671-5.466,3.577-8.219c-0.654-1.645-1.517-1.956-2.892-1.706c-1.16,0.211-4.288,0.641-5.988,0.171
		C-1.722,553.305-2.762,552.559-3.816,551.849 M17.641,553.625c-4.191-1.357-11.26-2.73-22.505-2.463
		c-2.008-1.288-4.832-3.013-6.3-3.688c-0.233-0.105-0.421-0.18-0.684-0.23c0.284-0.335,0.551-0.577,0.893-0.834
		c10.684,0.312,19.28,2.459,25.724,4.773C15.802,551.95,16.765,552.765,17.641,553.625 M-13.784,551.608
		c0.14-0.689,0.32-1.337,0.545-1.934c0.392,0.302,2.144,1.057,3.379,1.66C-11.128,551.403-12.436,551.496-13.784,551.608
		 M0.108,556.007c0.304,1.06,0.585,3.647,0.327,5.62c3.007-1.334,3.96-4.098,3.567-5.001c-0.148-0.344-0.298-0.497-0.757-0.48
		C2.17,556.165,1.125,556.118,0.108,556.007"/>
</g>
</svg>
